<?xml version="1.0" encoding="UTF-8" standalone="no" ?>
<!DOCTYPE svg PUBLIC "-//W3C//DTD SVG 1.1//EN" "http://www.w3.org/Graphics/SVG/1.1/DTD/svg11.dtd">
<svg xmlns="http://www.w3.org/2000/svg" xmlns:xlink="http://www.w3.org/1999/xlink" version="1.1" width="1280" height="1078.6595040790392" viewBox="0 0 1280 1078.6595040790392" xml:space="preserve">
<desc>Created with Fabric.js 5.3.0</desc>
<defs>
</defs>
<g transform="matrix(1 0 0 1 640 539.3297520395196)" id="background-logo"  >
<rect style="stroke: none; stroke-width: 0; stroke-dasharray: none; stroke-linecap: butt; stroke-dashoffset: 0; stroke-linejoin: miter; stroke-miterlimit: 4; fill: rgb(255,255,255); fill-opacity: 0; fill-rule: nonzero; opacity: 1;"  paint-order="stroke"  x="-992.0414817170055" y="-793.6331853736044" rx="0" ry="0" width="1984.082963434011" height="1587.2663707472088" />
</g>
<g transform="matrix(3.914954960770112 0 0 3.914954960770112 640 403.6349571931222)" id="logo-logo"  >
<g style=""  paint-order="stroke"   >
		<g transform="matrix(1.456085785568268 0 0 -1.4560857855682683 -145.48295745008667 34.421180362507954)"  >
<linearGradient id="SVGID_11_3_521069" gradientUnits="userSpaceOnUse" gradientTransform="matrix(1 0 0 1 -9.938672379737703 -20.686586698947252)"  x1="0" y1="0" x2="0" y2="22">
<stop offset="0%" style="stop-color:rgb(245,81,95);stop-opacity: 1"/>
<stop offset="100%" style="stop-color:rgb(159,4,27);stop-opacity: 1"/>
</linearGradient>
<path style="stroke: none; stroke-width: 1; stroke-dasharray: none; stroke-linecap: butt; stroke-dashoffset: 0; stroke-linejoin: miter; stroke-miterlimit: 4; fill: url(#SVGID_11_3_521069); fill-rule: nonzero; opacity: 1;"  paint-order="stroke"  transform=" translate(2.0176650653390062, 9.606416078919665)" d="M 0 0 C -0.062 1.318 -1.638 1.965 -2.575 1.037 C -5.991 -2.343 -11.314 -8.942 -9.611 -15.958000000000002 C -7.519 -24.57 2.328999999999999 -19.136000000000003 5.196999999999999 -17.339000000000002 C 5.696999999999999 -17.026000000000003 5.962999999999999 -16.454 5.8919999999999995 -15.869000000000002 C 5.685999999999999 -14.194 5.055 -10.712000000000002 3.2399999999999993 -8.646 C 1.308 -6.446 0.181 -3.831 0 0" stroke-linecap="round" />
</g>
		<g transform="matrix(1.456085785568268 0 0 -1.4560857855682683 -39.931251835455726 59.550220402112245)"  >
<linearGradient id="SVGID_11_3_521070" gradientUnits="userSpaceOnUse" gradientTransform="matrix(1 0 0 1 -34.846321032376906 -48.60109708631293)"  x1="0" y1="0" x2="0" y2="49">
<stop offset="0%" style="stop-color:rgb(245,81,95);stop-opacity: 1"/>
<stop offset="100%" style="stop-color:rgb(159,4,27);stop-opacity: 1"/>
</linearGradient>
<path style="stroke: none; stroke-width: 1; stroke-dasharray: none; stroke-linecap: butt; stroke-dashoffset: 0; stroke-linejoin: miter; stroke-miterlimit: 4; fill: url(#SVGID_11_3_521070); fill-rule: nonzero; opacity: 1;"  paint-order="stroke"  transform=" translate(17.39533277411849, 23.921455335429375)" d="M 0 0 C -0.059 0.943 -1.409 1.037 -1.593 0.109 C -2.6639999999999997 -5.291 -5.813 -13.088 -14.975999999999999 -16.673 C -29.741 -22.450999999999997 -35.931 -25.546 -34.692 -33.593 C -33.455 -41.64 -30.566 -52.163000000000004 -23.344 -47.417 C -16.815 -43.126 1.183 -18.934 0 0" stroke-linecap="round" />
</g>
		<g transform="matrix(1.456085785568268 0 0 -1.4560857855682683 144.3546759463719 33.98682997267284)"  >
<linearGradient id="SVGID_9_7_521071" gradientUnits="userSpaceOnUse" gradientTransform="matrix(1 0 0 1 -5.903342249059691 -20.686586698947252)"  x1="0" y1="0" x2="0" y2="22">
<stop offset="0%" style="stop-color:rgb(245,81,95);stop-opacity: 1"/>
<stop offset="100%" style="stop-color:rgb(159,4,27);stop-opacity: 1"/>
</linearGradient>
<path style="stroke: none; stroke-width: 1; stroke-dasharray: none; stroke-linecap: butt; stroke-dashoffset: 0; stroke-linejoin: miter; stroke-miterlimit: 4; fill: url(#SVGID_9_7_521071); fill-rule: nonzero; opacity: 1;"  paint-order="stroke"  transform=" translate(-2.017815674842651, 9.606416078919665)" d="M 0 0 C 0.062 1.318 1.638 1.965 2.576 1.037 C 5.991 -2.343 11.315000000000001 -8.942 9.611 -15.958000000000002 C 7.5200000000000005 -24.57 -2.3279999999999994 -19.136000000000003 -5.196999999999999 -17.339000000000002 C -5.696999999999999 -17.026000000000003 -5.962999999999999 -16.454 -5.8919999999999995 -15.869000000000002 C -5.685999999999999 -14.194 -5.055 -10.712000000000002 -3.2399999999999993 -8.646 C -1.3079999999999994 -6.446000000000001 -0.18099999999999916 -3.8310000000000004 8.881784197001252e-16 0" stroke-linecap="round" />
</g>
		<g transform="matrix(1.456085785568268 0 0 -1.4560857855682683 38.803313143889056 59.11587001227724)"  >
<linearGradient id="SVGID_9_7_521072" gradientUnits="userSpaceOnUse" gradientTransform="matrix(1 0 0 1 -0.05565548413992616 -48.60109708631293)"  x1="0" y1="0" x2="0" y2="49">
<stop offset="0%" style="stop-color:rgb(245,81,95);stop-opacity: 1"/>
<stop offset="100%" style="stop-color:rgb(159,4,27);stop-opacity: 1"/>
</linearGradient>
<path style="stroke: none; stroke-width: 1; stroke-dasharray: none; stroke-linecap: butt; stroke-dashoffset: 0; stroke-linejoin: miter; stroke-miterlimit: 4; fill: url(#SVGID_9_7_521072); fill-rule: nonzero; opacity: 1;"  paint-order="stroke"  transform=" translate(-17.395218817654566, 23.921455335429375)" d="M 0 0 C 0.059 0.943 1.409 1.037 1.593 0.109 C 2.6639999999999997 -5.291 5.813 -13.088 14.975999999999999 -16.673 C 29.74 -22.450999999999997 35.93 -25.546 34.692 -33.593 C 33.454 -41.64 30.565 -52.163 23.344 -47.417 C 16.815 -43.126 -1.183 -18.934 0 0" stroke-linecap="round" />
</g>
		<g transform="matrix(1.456085785568268 0 0 -1.4560857855682683 -51.41513330053789 17.85312401653681)"  >
<linearGradient id="SVGID_13_13_521073" gradientUnits="userSpaceOnUse" gradientTransform="matrix(1 0 0 1 -6.512133594866405 -17.354)"  x1="0" y1="0" x2="0" y2="21">
<stop offset="0%" style="stop-color:rgb(250,217,97);stop-opacity: 1"/>
<stop offset="100%" style="stop-color:rgb(247,107,28);stop-opacity: 1"/>
</linearGradient>
<path style="stroke: none; stroke-width: 1; stroke-dasharray: none; stroke-linecap: butt; stroke-dashoffset: 0; stroke-linejoin: miter; stroke-miterlimit: 4; fill: url(#SVGID_13_13_521073); fill-rule: nonzero; opacity: 1;"  paint-order="stroke"  transform=" translate(-3.7935506805222516, 6.936826905972403)" d="M 0 0 C 1.316 0.699 2.696 1.036 3.95 1.036 C 5.773 1.036 7.333 0.32400000000000007 8.05 -1.0270000000000001 C 9.26 -3.307 7.617 -6.556 4.387 -8.27 C 1.159 -9.983 -2.453 -9.523 -3.663 -7.242 C -4.873 -4.962 -3.229 -1.714 0 0 M 11.141 -9.492 C 10.416 -11.287 8.986 -12.823 7.114 -13.816 C 3.322 -15.829 -1.1000000000000005 -14.946000000000002 -2.742 -11.852 C -2.893 -11.568 -3.01 -11.27 -3.105 -10.964 C -2.0460000000000003 -11.477 -0.8180000000000001 -11.75 0.4860000000000002 -11.75 C 2.1290000000000004 -11.75 3.8840000000000003 -11.329 5.543000000000001 -10.448 C 8.322000000000001 -8.974 10.183 -6.557 10.73 -4.102 C 10.829 -4.2490000000000006 10.929 -4.3950000000000005 11.013 -4.553 C 11.79 -6.0169999999999995 11.834999999999999 -7.771 11.141 -9.492 M -5.776999999999999 -8.499 C -5.935999999999999 -10.09 -5.645999999999999 -11.64 -4.920999999999999 -13.008000000000001 C -3.4339999999999993 -15.81 -0.39899999999999913 -17.354 2.918000000000001 -17.354 C 4.686000000000001 -17.354 6.534000000000001 -16.916 8.270000000000001 -15.995 C 10.654000000000002 -14.729 12.486 -12.748 13.427000000000001 -10.415 C 14.399000000000001 -8.006 14.314000000000002 -5.514999999999999 13.191 -3.3969999999999994 C 12.574000000000002 -2.2349999999999994 11.649000000000001 -1.2599999999999993 10.523 -0.5239999999999991 C 10.439 -0.30299999999999916 10.342 -0.08399999999999913 10.229 0.1280000000000009 C 8.382 3.608000000000001 3.2749999999999995 4.529000000000001 -1.1560000000000006 2.179000000000001 C -5.586 -0.17199999999999882 -7.689000000000001 -4.916999999999999 -5.8420000000000005 -8.398 C -5.823 -8.434 -5.797000000000001 -8.464 -5.777 -8.499" stroke-linecap="round" />
</g>
		<g transform="matrix(1.456085785568268 0 0 -1.4560857855682683 -70.3644544109481 18.94124413123012)"  >
<linearGradient id="SVGID_13_13_521074" gradientUnits="userSpaceOnUse" gradientTransform="matrix(1 0 0 1 -79.64068939191168 -2.8860000000000383)"  x1="0" y1="0" x2="0" y2="115">
<stop offset="0%" style="stop-color:rgb(250,217,97);stop-opacity: 1"/>
<stop offset="100%" style="stop-color:rgb(247,107,28);stop-opacity: 1"/>
</linearGradient>
<path style="stroke: none; stroke-width: 1; stroke-dasharray: none; stroke-linecap: butt; stroke-dashoffset: 0; stroke-linejoin: miter; stroke-miterlimit: 4; fill: url(#SVGID_13_13_521074); fill-rule: nonzero; opacity: 1;"  paint-order="stroke"  transform=" translate(16.19442617908515, -54.41248187981627)" d="M 0 0 C -3.712 -1.016 -6.909 -0.186 -9.496 2.471 C -13.156 6.229 -15.086 13.146 -15.026 20.772 C -12.175 30.089 -3.956999999999999 32.593999999999994 3.998000000000001 35.010999999999996 C 5.949000000000002 35.604 7.793000000000001 36.163999999999994 9.578000000000001 36.824 C 17.712000000000003 39.833 19.823 53.44 20.340000000000003 58.721999999999994 C 23.178000000000004 56.730999999999995 24.660000000000004 54.684 24.581000000000003 52.647999999999996 C 24.141 41.431 13.316 3.648 0 0 M -44.67 46.324 C -47.334 45.497 -49.928000000000004 42.974999999999994 -52.931 40.054 C -53.876999999999995 39.134 -54.854 38.186 -55.867 37.255 C -55.431999999999995 39.189 -55.675 40.867000000000004 -56.263999999999996 42.468 C -55.242 43.476000000000006 -54.263999999999996 44.465 -53.346 45.396 C -51.025999999999996 47.75 -49.022999999999996 49.784 -47.629 50.7 C -44.156 52.983000000000004 -38.317 51.427 -30.924 49.455000000000005 C -28.855 48.904 -26.715 48.333000000000006 -24.423 47.787000000000006 C -18.136 46.290000000000006 -16.21 41.706 -15.643999999999998 38.513000000000005 C -24.463 42.098000000000006 -39.831999999999994 47.824000000000005 -44.67 46.324000000000005 M -67.727 30.234000000000005 C -69.813 29.803000000000004 -71.431 30.167000000000005 -72.673 30.850000000000005 C -67.418 32.620000000000005 -62.494 36.55500000000001 -58.261 40.542 C -57.837 38.584 -58.269000000000005 36.539 -60.266000000000005 33.655 C -62.531000000000006 32.067 -64.99300000000001 30.801000000000002 -67.727 30.234 M -74.012 49.159000000000006 C -70.809 52.739000000000004 -66.367 57.38700000000001 -60.794 61.59400000000001 C -62.992 58.24100000000001 -64.59 54.12700000000001 -63.023999999999994 50.34400000000001 C -62.217999999999996 48.39500000000001 -61.27799999999999 46.75500000000001 -60.44799999999999 45.30800000000001 C -59.98599999999999 44.50200000000001 -59.562999999999995 43.760000000000005 -59.20499999999999 43.047000000000004 C -63.80899999999999 38.626000000000005 -69.27099999999999 34.142 -74.89299999999999 32.771 C -75.17499999999998 33.133 -75.40699999999998 33.49 -75.59299999999999 33.811 C -77.88199999999999 37.784 -77.92899999999999 44.782 -74.01199999999999 49.159 M -47.606999999999985 72.288 C -46.33499999999999 72.963 -44.978999999999985 73.315 -43.69399999999999 73.315 C -43.33999999999999 73.315 -42.993999999999986 73.289 -42.65499999999999 73.235 C -41.210999999999984 73.006 -40.11099999999999 72.306 -39.55699999999999 71.26 C -39.00199999999999 70.21600000000001 -39.03899999999999 68.912 -39.658999999999985 67.58800000000001 C -40.33399999999998 66.14600000000002 -41.59899999999998 64.87800000000001 -43.21899999999999 64.019 C -44.83999999999999 63.15800000000001 -46.59699999999999 62.82300000000001 -48.17199999999999 63.071000000000005 C -49.61599999999999 63.29900000000001 -50.71599999999999 64 -51.26999999999999 65.045 C -51.82499999999999 66.09 -51.78899999999999 67.395 -51.16799999999999 68.718 C -50.492999999999995 70.161 -49.227999999999994 71.428 -47.60699999999999 72.288 M -37.425999999999995 66.542 C -37.17099999999999 67.084 -36.989 67.629 -36.867 68.171 C -36.772 68.028 -36.675 67.888 -36.593999999999994 67.73400000000001 C -34.95199999999999 64.64000000000001 -36.70099999999999 60.48400000000001 -40.492999999999995 58.47200000000001 C -44.285 56.458000000000006 -48.705999999999996 57.34100000000001 -50.349 60.43600000000001 C -50.495999999999995 60.71300000000001 -50.611999999999995 61.00300000000001 -50.706999999999994 61.300000000000004 C -50.05899999999999 60.987 -49.339999999999996 60.75900000000001 -48.55799999999999 60.635000000000005 C -48.093999999999994 60.562000000000005 -47.61999999999999 60.526 -47.14099999999999 60.526 C -45.45099999999999 60.526 -43.69099999999999 60.976000000000006 -42.06299999999999 61.84 C -39.97399999999999 62.949000000000005 -38.32699999999999 64.61800000000001 -37.42599999999999 66.542 M -26.941999999999986 71.931 C -20.832999999999984 71.095 -15.155999999999986 70.137 -9.962999999999987 69.083 C -9.821999999999987 69.029 -9.673999999999987 68.992 -9.521999999999986 68.992 C -9.520999999999987 68.992 -9.520999999999987 68.992 -9.519999999999985 68.992 C 2.698 66.486 12.166 63.444 17.987 60.191 C 17.729 56.754 16.187 41.898 8.722 39.137 C 7.007 38.502 5.196 37.953 3.281 37.371 C -3.12 35.426 -10.171 33.262 -14.489 27.352 C -14.171000000000001 29.399 -13.724 31.448 -13.117 33.455 C -12.945 34.024 -12.913 34.6 -12.982000000000001 35.155 C -12.907000000000002 36.476 -12.631 47.514 -23.851 50.186 C -26.110999999999997 50.724 -28.235 51.29 -30.288999999999998 51.838 C -38.277 53.969 -44.586999999999996 55.654 -48.983999999999995 52.76 C -50.596999999999994 51.699999999999996 -52.584999999999994 49.681999999999995 -55.102999999999994 47.126999999999995 C -55.821 46.397 -56.577999999999996 45.63099999999999 -57.364 44.848 C -57.663 45.405 -57.982 45.964999999999996 -58.309 46.535 C -59.14 47.983999999999995 -60 49.483999999999995 -60.745999999999995 51.285999999999994 C -62.931999999999995 56.568 -56.51499999999999 63.400999999999996 -54.05499999999999 65.75699999999999 C -53.956999999999994 65.106 -53.760999999999996 64.478 -53.44899999999999 63.88999999999999 C -53.42999999999999 63.852999999999994 -53.404999999999994 63.82099999999999 -53.38499999999999 63.785999999999994 C -53.54299999999999 62.196999999999996 -53.25299999999999 60.648999999999994 -52.52799999999999 59.28099999999999 C -51.04099999999999 56.477999999999994 -48.00599999999999 54.93299999999999 -44.68899999999999 54.93299999999999 C -42.92099999999999 54.93299999999999 -41.07299999999999 55.37199999999999 -39.33699999999999 56.29299999999999 C -34.34299999999999 58.94399999999999 -32.13599999999999 64.594 -34.41599999999999 68.89099999999999 C -35.03199999999999 70.05199999999999 -35.95699999999999 71.02699999999999 -37.08299999999999 71.76299999999999 C -37.10799999999999 71.82999999999998 -37.14399999999999 71.89299999999999 -37.17099999999999 71.95899999999999 C -33.76299999999999 72.39999999999999 -30.32999999999999 72.395 -26.941999999999993 71.93099999999998 M -6.204999999999995 70.80599999999998 C 1.5080000000000053 75.63999999999999 22.999000000000006 90.05999999999999 24.326000000000004 101.42999999999998 C 24.653000000000006 104.23599999999998 25.675000000000004 106.32099999999998 27.361000000000004 107.62799999999999 C 28.724000000000004 108.68399999999998 30.306000000000004 109.06299999999999 31.511000000000003 109.18699999999998 L 33.578 109.18699999999998 L 39.199000000000005 109.18699999999998 L 42.93900000000001 109.18699999999998 L 8.663 74.91 C 8.219 74.466 8.179 73.76 8.57 73.27 C 8.812000000000001 72.966 9.171 72.80499999999999 9.535 72.80499999999999 C 9.76 72.80499999999999 9.987 72.866 10.189 72.99399999999999 L 46.674 95.87699999999998 C 47.251 96.23999999999998 47.425 96.99999999999999 47.063 97.57699999999998 C 46.702000000000005 98.15399999999998 45.938 98.32799999999999 45.364000000000004 97.96599999999998 L 18.117000000000004 80.87599999999998 L 46.788000000000004 109.54699999999997 C 47.14 109.89999999999996 47.246 110.43099999999997 47.05500000000001 110.89199999999997 C 46.864000000000004 111.35199999999996 46.415000000000006 111.65199999999997 45.916000000000004 111.65199999999997 L 39.199000000000005 111.65199999999997 L 33.65500000000001 111.65199999999997 C 32.96800000000001 111.73299999999998 29.06900000000001 112.05499999999998 25.875000000000007 109.59699999999997 C 23.631000000000007 107.86999999999996 22.28600000000001 105.21799999999996 21.87600000000001 101.71599999999997 C 20.526000000000007 90.15299999999996 -6.027999999999992 73.76799999999997 -9.71899999999999 71.54399999999997 C -16.13999999999999 72.83699999999997 -22.17299999999999 73.76799999999997 -26.60899999999999 74.37399999999997 C -30.66699999999999 74.92799999999997 -34.78299999999999 74.86599999999997 -38.85399999999999 74.20299999999996 C -39.76999999999999 74.94999999999996 -40.928999999999995 75.45799999999996 -42.26999999999999 75.66999999999996 C -44.365999999999985 76.00499999999995 -46.67299999999999 75.57599999999996 -48.76299999999999 74.46599999999997 C -50.852999999999994 73.35799999999996 -52.49999999999999 71.68799999999996 -53.40099999999999 69.76499999999997 C -53.508999999999986 69.53399999999998 -53.60199999999999 69.30199999999998 -53.685999999999986 69.07099999999997 C -53.944999999999986 68.93399999999997 -54.201999999999984 68.79299999999996 -54.457999999999984 68.65199999999997 C -54.50099999999998 68.63199999999998 -54.542999999999985 68.60899999999997 -54.58499999999999 68.58299999999997 C -64.04599999999999 63.34399999999997 -71.21499999999999 55.983999999999966 -75.85 50.80299999999997 C -80.56299999999999 45.53499999999997 -80.50699999999999 37.39999999999997 -77.729 32.57999999999997 C -75.459 28.64099999999997 -71.633 26.906999999999968 -67.226 27.81899999999997 C -64.088 28.46999999999997 -61.286 29.93099999999997 -58.760999999999996 31.71199999999997 C -58.684999999999995 31.75499999999997 -58.61299999999999 31.80399999999997 -58.54599999999999 31.863999999999972 C -55.785999999999994 33.842999999999975 -53.36099999999999 36.19499999999997 -51.21099999999999 38.28699999999997 C -48.43599999999999 40.98499999999997 -46.038999999999994 43.315999999999974 -43.93899999999999 43.96799999999997 C -41.01199999999999 44.87599999999997 -30.482999999999993 41.89199999999997 -16.451999999999995 36.17899999999997 C -15.647999999999994 35.852999999999966 -15.228999999999994 34.986999999999966 -15.476999999999995 34.167999999999964 C -19.367999999999995 21.306999999999963 -17.594999999999995 7.251999999999963 -11.261999999999995 0.7499999999999645 C -8.915999999999995 -1.6590000000000353 -6.088999999999995 -2.8860000000000356 -2.9519999999999946 -2.8860000000000356 C -1.7909999999999946 -2.8860000000000356 -0.5859999999999945 -2.7170000000000356 0.6520000000000055 -2.3780000000000356 C 16.233000000000004 1.8909999999999645 26.640000000000004 42.228999999999964 27.045000000000005 52.551999999999964 C 27.391000000000005 61.37699999999997 10.063000000000006 67.24799999999996 -6.204999999999995 70.80599999999997" stroke-linecap="round" />
</g>
		<g transform="matrix(1.456085785568268 0 0 -1.4560857855682683 51.41484830964873 17.8530397602442)"  >
<linearGradient id="SVGID_13_13_521075" gradientUnits="userSpaceOnUse" gradientTransform="matrix(1 0 0 1 -17.762579263416633 -10.112)"  x1="0" y1="0" x2="0" y2="21">
<stop offset="0%" style="stop-color:rgb(250,217,97);stop-opacity: 1"/>
<stop offset="100%" style="stop-color:rgb(247,107,28);stop-opacity: 1"/>
</linearGradient>
<path style="stroke: none; stroke-width: 1; stroke-dasharray: none; stroke-linecap: butt; stroke-dashoffset: 0; stroke-linejoin: miter; stroke-miterlimit: 4; fill: url(#SVGID_13_13_521075); fill-rule: nonzero; opacity: 1;"  paint-order="stroke"  transform=" translate(7.456722834275114, -0.3053309589512505)" d="M 0 0 C -1.209 -2.28 -4.822 -2.742 -8.051 -1.027 C -11.279 0.687 -12.923 3.9349999999999996 -11.713000000000001 6.215 C -10.502 8.495 -6.891000000000001 8.956 -3.6630000000000003 7.242 C -0.434 5.528 1.21 2.28 0 0 M -10.777 -6.574 C -12.649 -5.5809999999999995 -14.078999999999999 -4.045 -14.803999999999998 -2.25 C -15.497999999999998 -0.528 -15.453 1.226 -14.675999999999998 2.689 C -14.591999999999999 2.847 -14.491999999999999 2.993 -14.393999999999998 3.14 C -13.846999999999998 0.685 -11.985 -1.7310000000000003 -9.206999999999997 -3.206 C -7.545999999999998 -4.087 -5.791999999999997 -4.508 -4.148999999999997 -4.508 C -2.844999999999997 -4.508 -1.6179999999999972 -4.234 -0.5579999999999972 -3.722 C -0.6539999999999971 -4.027 -0.7709999999999971 -4.326 -0.9209999999999972 -4.609 C -2.562999999999997 -7.702999999999999 -6.984999999999998 -8.585 -10.776999999999997 -6.574 M -2.506999999999998 9.421 C -6.937999999999998 11.770999999999999 -12.043999999999999 10.850999999999999 -13.891999999999998 7.3709999999999996 C -14.004999999999997 7.1579999999999995 -14.101999999999999 6.938999999999999 -14.185999999999998 6.718 C -15.312999999999999 5.982 -16.237 5.007 -16.854 3.8449999999999998 C -17.977999999999998 1.7279999999999998 -18.061999999999998 -0.7640000000000002 -17.09 -3.1720000000000006 C -16.149 -5.505000000000001 -14.317 -7.487000000000001 -11.933 -8.752 C -10.196 -9.673 -8.35 -10.112 -6.5809999999999995 -10.112 C -3.2649999999999997 -10.112 -0.22999999999999954 -8.568 1.2570000000000006 -5.766 C 1.9830000000000005 -4.397 2.2730000000000006 -2.847 2.1140000000000008 -1.2569999999999997 C 2.134000000000001 -1.2219999999999998 2.1600000000000006 -1.1919999999999997 2.1790000000000007 -1.1559999999999997 C 4.026 2.325 1.923 7.07 -2.507 9.421" stroke-linecap="round" />
</g>
		<g transform="matrix(1.456085785568268 0 0 -1.4560857855682683 66.27572550239324 0)"  >
<linearGradient id="SVGID_13_13_521076" gradientUnits="userSpaceOnUse" gradientTransform="matrix(1 0 0 1 -128.45956843649392 -36.698)"  x1="0" y1="0" x2="0" y2="141">
<stop offset="0%" style="stop-color:rgb(250,217,97);stop-opacity: 1"/>
<stop offset="100%" style="stop-color:rgb(247,107,28);stop-opacity: 1"/>
</linearGradient>
<path style="stroke: none; stroke-width: 1; stroke-dasharray: none; stroke-linecap: butt; stroke-dashoffset: 0; stroke-linejoin: miter; stroke-miterlimit: 4; fill: url(#SVGID_13_13_521076); fill-rule: nonzero; opacity: 1;"  paint-order="stroke"  transform=" translate(62.20527773718301, -33.60881169043801)" d="M 0 0 C -0.185 -0.322 -0.417 -0.679 -0.7 -1.041 C -6.321000000000001 0.33000000000000007 -11.783999999999999 4.814 -16.387 9.234 C -16.029 9.948 -15.605 10.69 -15.144 11.495000000000001 C -14.314 12.943000000000001 -13.374 14.583000000000002 -12.568 16.532 C -11.001999999999999 20.315 -12.6 24.429000000000002 -14.798 27.782 C -9.225 23.576 -4.783 18.927 -1.581 15.347 C 2.336 10.97 2.29 3.973 0 0 M -7.866 -3.578 C -10.6 -3.011 -13.062 -1.7439999999999998 -15.327 -0.1559999999999997 C -17.324 2.7270000000000003 -17.755 4.772 -17.331 6.729 C -13.097999999999999 2.743 -8.174 -1.1920000000000002 -2.9189999999999987 -2.9620000000000006 C -4.161999999999999 -3.646000000000001 -5.780999999999999 -4.010000000000001 -7.865999999999999 -3.5780000000000007 M -30.922 12.511999999999999 C -35.761 14.011999999999999 -51.143 8.280999999999999 -59.96 4.695999999999999 C -59.405 7.885999999999999 -57.488 12.469999999999999 -51.169 13.974999999999998 C -48.876999999999995 14.520999999999997 -46.736999999999995 15.091999999999999 -44.666999999999994 15.642999999999997 C -37.273999999999994 17.615 -31.435999999999993 19.171999999999997 -27.961999999999996 16.887999999999998 C -26.568999999999996 15.971999999999998 -24.565999999999995 13.938999999999998 -22.246999999999996 11.584999999999997 C -21.328999999999997 10.652999999999997 -20.350999999999996 9.663999999999998 -19.327999999999996 8.654999999999998 C -19.916999999999994 7.054999999999998 -20.159999999999997 5.376999999999997 -19.724999999999994 3.442999999999998 C -20.736999999999995 4.373999999999998 -21.713999999999995 5.320999999999998 -22.660999999999994 6.240999999999998 C -25.663999999999994 9.162999999999998 -28.256999999999994 11.684999999999999 -30.921999999999993 12.511999999999997 M -66.097 -31.342000000000002 C -68.68499999999999 -34 -71.88 -34.828 -75.592 -33.812000000000005 C -88.908 -30.164000000000005 -99.732 7.618999999999993 -100.172 18.836 C -100.252 20.872 -98.77 22.918999999999997 -95.932 24.909999999999997 C -95.414 19.627999999999997 -93.304 6.020999999999997 -85.169 3.011999999999997 C -83.38499999999999 2.3519999999999968 -81.541 1.791999999999997 -79.589 1.198999999999997 C -71.634 -1.2180000000000029 -63.416 -3.7230000000000025 -60.566 -13.042000000000003 C -60.506 -20.667 -62.436 -27.583000000000006 -66.09700000000001 -31.342000000000006 M -48.64900000000001 38.11899999999999 C -45.26200000000001 38.58299999999999 -41.830000000000005 38.587999999999994 -38.42100000000001 38.14699999999999 C -38.449000000000005 38.08099999999999 -38.48400000000001 38.01699999999999 -38.510000000000005 37.94999999999999 C -39.63700000000001 37.21499999999999 -40.56100000000001 36.23999999999999 -41.176 35.078999999999986 C -43.456 30.781999999999986 -41.249 25.130999999999986 -36.255 22.480999999999987 C -34.519000000000005 21.559999999999988 -32.671 21.120999999999988 -30.903000000000002 21.120999999999988 C -27.587000000000003 21.120999999999988 -24.552000000000003 22.666999999999987 -23.064 25.468999999999987 C -22.339 26.834999999999987 -22.049 28.383999999999986 -22.208 29.973999999999986 C -22.186999999999998 30.008999999999986 -22.162999999999997 30.040999999999986 -22.144 30.077999999999985 C -21.826999999999998 30.674999999999986 -21.633999999999997 31.311999999999983 -21.541999999999998 31.965999999999987 C -18.351 28.94699999999999 -12.834999999999997 22.332999999999988 -14.845999999999998 17.473999999999986 C -15.591999999999999 15.671999999999986 -16.451999999999998 14.171999999999986 -17.282999999999998 12.721999999999987 C -17.61 12.151999999999987 -17.929 11.592999999999988 -18.227999999999998 11.035999999999987 C -19.014 11.818999999999987 -19.770999999999997 12.585999999999988 -20.49 13.315999999999987 C -23.006999999999998 15.869999999999987 -24.996 17.887999999999987 -26.607 18.947999999999986 C -31.003 21.839999999999986 -37.314 20.157999999999987 -45.303 18.025999999999986 C -47.355999999999995 17.477999999999987 -49.48 16.911999999999985 -51.739999999999995 16.373999999999985 C -62.956999999999994 13.702999999999985 -62.68599999999999 2.6719999999999846 -62.60999999999999 1.3439999999999852 C -62.678999999999995 0.7889999999999852 -62.64699999999999 0.2119999999999853 -62.474999999999994 -0.35800000000001475 C -61.867999999999995 -2.365000000000015 -61.419999999999995 -4.414000000000015 -61.102999999999994 -6.4610000000000145 C -65.41999999999999 -0.5500000000000149 -72.472 1.6139999999999848 -78.87299999999999 3.558999999999985 C -80.78899999999999 4.140999999999985 -82.59799999999998 4.689999999999985 -84.314 5.324999999999985 C -91.77 8.082999999999984 -93.318 22.940999999999985 -93.579 26.378999999999984 C -87.41 29.825999999999983 -77.151 33.03499999999998 -63.86099999999999 35.62099999999998 C -63.76399999999999 35.634999999999984 -63.66599999999999 35.64199999999998 -63.57799999999999 35.67599999999998 C -58.94899999999999 36.570999999999984 -53.963999999999984 37.39199999999998 -48.64899999999999 38.11899999999998 M -32.93799999999999 39.42299999999998 C -32.59899999999999 39.47699999999998 -32.25199999999999 39.50299999999998 -31.898999999999987 39.50299999999998 C -30.613999999999987 39.50299999999998 -29.255999999999986 39.15099999999998 -27.983999999999988 38.47599999999998 C -26.011999999999986 37.42999999999998 -24.636999999999986 35.80999999999998 -24.13599999999999 34.18899999999998 C -24.12199999999999 34.11199999999998 -24.10099999999999 34.037999999999975 -24.07299999999999 33.96599999999998 C -23.82599999999999 33.00699999999998 -23.88499999999999 32.05699999999998 -24.32199999999999 31.23299999999998 C -24.875999999999987 30.18799999999998 -25.97699999999999 29.48699999999998 -27.419999999999987 29.25899999999998 C -28.989999999999988 29.010999999999978 -30.750999999999987 29.34599999999998 -32.37299999999999 30.20699999999998 C -33.99299999999999 31.06599999999998 -35.25799999999999 32.33399999999998 -35.93399999999999 33.77599999999998 C -36.55399999999999 35.09999999999998 -36.58999999999999 36.40399999999998 -36.03499999999999 37.44799999999998 C -35.48099999999999 38.49399999999998 -34.380999999999986 39.19399999999998 -32.93799999999999 39.42299999999998 M -38.72499999999999 34.35799999999998 C -38.603999999999985 33.816999999999986 -38.420999999999985 33.271999999999984 -38.16699999999999 32.728999999999985 C -37.265999999999984 30.805999999999983 -35.61799999999999 29.136999999999986 -33.527999999999984 28.027999999999984 C -31.899999999999984 27.163999999999984 -30.140999999999984 26.712999999999983 -28.450999999999986 26.713999999999984 C -27.971999999999987 26.713999999999984 -27.497999999999987 26.749999999999986 -27.033999999999985 26.822999999999986 C -26.250999999999983 26.946999999999985 -25.532999999999983 27.174999999999986 -24.885999999999985 27.487999999999985 C -24.979999999999986 27.190999999999985 -25.095999999999986 26.900999999999986 -25.242999999999984 26.624999999999986 C -26.885999999999985 23.529999999999987 -31.305999999999983 22.646999999999984 -35.09899999999998 24.659999999999986 C -38.89199999999998 26.671999999999986 -40.639999999999986 30.826999999999984 -38.99799999999998 33.92299999999999 C -38.91699999999998 34.075999999999986 -38.81899999999998 34.21599999999999 -38.72499999999998 34.35799999999999 M 0.258 16.991 C -4.375 22.171 -11.541 29.529 -21.003 34.769 C -21.047 34.796 -21.092 34.82 -21.138 34.842 C -21.401000000000003 34.987 -21.665000000000003 35.131 -21.931 35.272 C -22.701 37.382 -24.416 39.373999999999995 -26.829 40.653999999999996 C -28.92 41.763999999999996 -31.226 42.193 -33.323 41.858 C -34.664 41.645999999999994 -35.822 41.138 -36.738 40.391 C -40.811 41.053999999999995 -44.926 41.116 -48.983 40.562 C -53.012 40.010999999999996 -58.358999999999995 39.193 -64.11699999999999 38.079 C -66.428 38.391 -86.07199999999999 41.383 -87.11999999999999 52.742000000000004 C -87.51799999999999 57.048 -87.93799999999999 60.352000000000004 -88.36899999999999 62.56 C -88.63199999999999 63.904 -88.01999999999998 65.301 -86.84699999999998 66.037 L -75.95199999999998 72.87100000000001 C -75.95099999999998 72.87100000000001 -75.94999999999999 72.87200000000001 -75.94899999999998 72.873 L -58.66899999999998 83.711 C -58.20399999999998 84.003 -57.98699999999998 84.568 -58.13899999999998 85.097 C -58.29099999999998 85.625 -58.77399999999998 85.988 -59.323999999999984 85.988 L -98.43199999999999 85.988 L -82.832 101.589 C -82.481 101.94 -82.375 102.467 -82.562 102.926 C -82.749 103.386 -83.194 103.688 -83.691 103.694 L -104.398 103.915 C -104.725 103.927 -105.10199999999999 103.765 -105.339 103.494 L -128.154 77.419 C -128.47299999999998 77.05499999999999 -128.549 76.538 -128.35 76.098 C -128.149 75.657 -127.71 75.375 -127.22699999999999 75.375 L -116.898 75.375 C -116.217 75.375 -115.66499999999999 75.927 -115.66499999999999 76.607 C -115.66499999999999 77.288 -116.217 77.84 -116.898 77.84 L -124.509 77.84 L -103.857 101.44300000000001 L -86.649 101.25900000000001 L -102.28 85.62700000000001 C -102.632 85.275 -102.738 84.74400000000001 -102.547 84.28300000000002 C -102.356 83.82200000000002 -101.907 83.52200000000002 -101.408 83.52200000000002 L -63.611000000000004 83.52200000000002 L -85.767 69.625 C -85.767 69.625 -85.768 69.625 -85.768 69.624 L -88.157 68.125 C -90.188 66.853 -91.246 64.426 -90.78999999999999 62.087 C -90.37499999999999 59.96 -89.966 56.739000000000004 -89.576 52.515 C -88.692 42.939 -77.58999999999999 38.603 -70.347 36.781 C -86.329 33.204 -102.976 27.392 -102.637 18.74 C -102.231 8.416999999999998 -91.825 -31.921000000000003 -76.244 -36.19 C -75.006 -36.528999999999996 -73.80199999999999 -36.698 -72.639 -36.698 C -69.50399999999999 -36.697 -66.676 -35.471000000000004 -64.33 -33.063 C -57.997 -26.561000000000003 -56.224 -12.506000000000004 -60.114999999999995 0.35599999999999454 C -60.361999999999995 1.1749999999999945 -59.943 2.0409999999999946 -59.138999999999996 2.3669999999999947 C -45.108999999999995 8.079999999999995 -34.580999999999996 11.062999999999995 -31.651999999999997 10.155999999999995 C -29.552999999999997 9.503999999999996 -27.154999999999998 7.172999999999995 -24.379999999999995 4.473999999999995 C -22.229999999999997 2.3829999999999947 -19.806999999999995 0.0319999999999947 -17.046999999999997 -1.9470000000000054 C -16.976999999999997 -2.0100000000000056 -16.900999999999996 -2.0630000000000055 -16.819999999999997 -2.1070000000000055 C -14.297999999999996 -3.8850000000000056 -11.499999999999996 -5.343000000000005 -8.366999999999997 -5.993000000000006 C -3.964999999999997 -6.904000000000005 -0.1339999999999968 -5.171000000000006 2.1370000000000022 -1.231000000000006 C 4.915000000000003 3.588999999999994 4.972000000000002 11.722999999999995 0.2580000000000022 16.990999999999996" stroke-linecap="round" />
</g>
</g>
</g>
<g transform="matrix(3.052435328360017 0 0 3.0524353283600174 657.6514612975537 910.7264527041248)" id="text-logo"  >
<g style=""  paint-order="stroke"   >
		<g transform="matrix(1 0 0 1 0 0)" id="text-logo-path-0"  >
<filter id="SVGID_521065" y="-27.833920877399137%" height="155.66784175479827%" x="-22.923036450264537%" width="145.84607290052907%" >
	<feGaussianBlur in="SourceAlpha" stdDeviation="2"></feGaussianBlur>
	<feOffset dx="6" dy="0" result="oBlur" ></feOffset>
	<feFlood flood-color="rgb(0,0,0)" flood-opacity="1"/>
	<feComposite in2="oBlur" operator="in" />
	<feMerge>
		<feMergeNode></feMergeNode>
		<feMergeNode in="SourceGraphic"></feMergeNode>
	</feMerge>
</filter>
<path style="stroke: rgb(0,0,0); stroke-width: 3; stroke-dasharray: none; stroke-linecap: butt; stroke-dashoffset: 0; stroke-linejoin: miter; stroke-miterlimit: 4; fill: rgb(255,255,255); fill-rule: nonzero; opacity: 1;filter: url(#SVGID_521065);"  paint-order="stroke"  transform=" translate(-174.09499999999997, 23.86)" d="M 34.88 0 L 3.04 0 L 3.04 -9.43 L 10.95 -9.43 L 10.95 -38.3 L 3.04 -38.3 L 3.04 -47.05 L 62.38 -47.05 L 62.38 -28.8 L 51.92 -28.8 L 51.92 -38.3 L 26.68 -38.3 L 26.68 -28.5 L 44.01 -28.5 L 44.01 -19.74 L 26.68 -19.74 L 26.68 -9.43 L 34.88 -9.43 Z M 127.8 0 L 68.47 0 L 68.47 -9.43 L 76.37 -9.43 L 76.37 -38.3 L 68.47 -38.3 L 68.47 -47.05 L 100.31 -47.05 L 100.31 -38.3 L 92.11 -38.3 L 92.11 -9.43 L 117.34 -9.43 L 117.34 -18.33 L 127.8 -18.33 Z M 160.57 0 L 132.37 0 L 132.37 -9.43 L 141.94 -9.43 L 165.51 -46.83 L 175.38 -49.39 L 198.35 -9.43 L 204.32 -9.43 L 204.32 0 L 176.16 0 L 176.16 -9.43 L 179.79 -9.43 L 178.13 -12.69 L 157.9 -12.69 L 156.01 -9.43 L 160.57 -9.43 Z M 163.06 -21.34 L 173.63 -21.34 L 168.77 -30.84 Z M 219.39 0.3 L 208.89 0.3 L 208.89 -18.78 L 219.39 -18.78 L 219.39 -16.03 C 219.39 -13.06 222.02 -10.81 226.05 -9.72 C 230.08 -8.63 234.11 -8.2 238.61 -8.2 C 241.04 -8.2 243.5 -8.52 245.76 -9.17 C 248.01 -9.81 249.56 -11.08 249.56 -12.62 C 249.56 -13.9 249.14 -14.81 248 -15.4 C 246.86 -15.99 245.74 -16.3 243.49 -16.55 C 241.42 -16.78 238.97 -16.93 236.16 -17.2 C 234.51 -17.36 232.96 -17.53 231.53 -17.7 C 226.83 -18.29 222.7 -18.81 216.87 -22.37 C 212.64 -24.96 210.26 -28.71 210.26 -33.13 C 210.26 -37.24 211.83 -40.77 214.46 -43.04 C 215.77 -44.18 217.23 -45.16 218.83 -45.99 C 223.72 -48.51 229.76 -49.24 235.2 -49.24 C 241.98 -49.24 250.41 -46.83 254.27 -44.16 L 254.27 -47.87 L 264.74 -47.87 L 264.74 -29.57 L 254.27 -29.57 L 254.27 -32.28 C 254.27 -34.61 251.78 -36.61 248.24 -37.7 C 244.71 -38.79 240.68 -39.37 237.02 -39.37 C 232.74 -39.37 229.81 -39.06 228.22 -38.46 C 226.64 -37.85 225.85 -36.61 225.85 -34.73 C 225.85 -32.58 228.18 -32.58 231.6 -31.98 C 234.22 -31.49 238.85 -31.02 242.19 -30.72 C 245.53 -30.43 249.99 -29.69 253.18 -28.77 C 256.37 -27.86 259.77 -26.13 261.82 -23.86 C 263.88 -21.58 265.29 -18.04 265.29 -13.69 C 265.29 -4.04 255.97 1.67 237.31 1.67 C 230.04 1.67 223.4 0.34 219.39 -1.74 Z M 303.18 0 L 271.34 0 L 271.34 -9.43 L 279.25 -9.43 L 279.25 -38.3 L 271.34 -38.3 L 271.34 -47.05 L 303.18 -47.05 L 303.18 -38.3 L 294.98 -38.3 L 294.98 -28.5 L 321.18 -28.5 L 321.18 -38.3 L 313.28 -38.3 L 313.28 -47.05 L 345.15 -47.05 L 345.15 -38.3 L 336.92 -38.3 L 336.92 -9.43 L 345.15 -9.43 L 345.15 0 L 313.28 0 L 313.28 -9.43 L 321.18 -9.43 L 321.18 -19.74 L 294.98 -19.74 L 294.98 -9.43 L 303.18 -9.43 Z" stroke-linecap="round" />
</g>
</g>
</g>
<g transform="matrix(3.052435328360017 0 0 3.0524353283600174 657.4375225441199 1044.4264418714818)" id="tagline-985cd443-83e9-458b-89ac-c78d0e20c501-logo"  >
<g style=""  paint-order="stroke"   >
		<g transform="matrix(1 0 0 1 0 0)" id="tagline-985cd443-83e9-458b-89ac-c78d0e20c501-logo-path-0"  >
<linearGradient id="SVGID_521077" gradientUnits="userSpaceOnUse" gradientTransform="matrix(1 0 0 1 1.0600000000000023 -20.15)"  x1="-1.0891308593750182" y1="-0.07275906249998343" x2="-1.0891308593750182" y2="25.927240937500017">
<stop offset="0%" style="stop-color:rgb(250,217,97);stop-opacity: 1"/>
<stop offset="100%" style="stop-color:rgb(247,107,28);stop-opacity: 1"/>
</linearGradient>
<path style="stroke: rgb(0,0,0); stroke-width: 2; stroke-dasharray: none; stroke-linecap: butt; stroke-dashoffset: 0; stroke-linejoin: miter; stroke-miterlimit: 4; fill: url(#SVGID_521077); fill-rule: nonzero; opacity: 1;"  paint-order="stroke"  transform=" translate(-66.605, 9.934999999999999)" d="M 1.06 -7.5 L 1.06 -7.5 L 1.06 -8 Q 1.06 -9.38 1.63 -10.84 Q 2.2 -12.31 3.23 -13.38 L 3.23 -13.38 Q 5.44 -15.67 8.63 -15.67 L 8.63 -15.67 Q 9.53 -15.67 10.88 -15.39 Q 12.22 -15.12 13.21 -15.12 L 13.21 -15.12 Q 14.26 -15.12 14.26 -12.31 L 14.26 -12.31 Q 14.26 -11.58 13.9 -11.58 L 13.9 -11.58 Q 13.68 -11.58 12.86 -12.42 Q 12.05 -13.25 11.07 -13.74 Q 10.08 -14.23 8.87 -14.23 L 8.87 -14.23 Q 7.64 -14.23 6.76 -13.76 L 6.76 -13.76 Q 3.92 -12.24 3.92 -7.87 L 3.92 -7.87 L 3.92 -7.84 Q 3.92 -7.81 3.92 -7.76 L 3.92 -7.76 Q 3.92 -6.33 4.33 -5.13 L 4.33 -5.13 Q 5.17 -2.68 7.05 -1.73 L 7.05 -1.73 Q 7.87 -1.31 9.09 -1.31 Q 10.3 -1.31 10.94 -2.01 Q 11.59 -2.71 11.59 -3.95 Q 11.59 -5.2 10.96 -6.17 L 10.96 -6.17 Q 10.68 -6.59 10.68 -6.67 L 10.68 -6.67 Q 10.68 -7.06 13.07 -7.06 L 13.07 -7.06 Q 15.48 -7.05 15.48 -6.45 L 15.48 -6.45 Q 15.48 -6.29 15.11 -5.91 Q 14.75 -5.54 14.61 -5.06 Q 14.46 -4.58 14.38 -3.02 Q 14.3 -1.45 14 -1.07 Q 13.7 -0.69 12.75 -0.53 Q 11.79 -0.37 10.73 -0.08 Q 9.67 0.2 8.91 0.2 L 8.91 0.2 L 8.43 0.2 Q 7.01 0.2 5.62 -0.34 Q 4.22 -0.88 3.14 -2.01 L 3.14 -2.01 Q 1.06 -4.18 1.06 -7.5 Z M 17.16 -0.89 L 17.16 -0.89 Q 17.16 -1.09 17.63 -1.44 Q 18.09 -1.79 18.18 -1.89 L 18.18 -1.89 Q 18.7 -2.45 19.08 -3.36 Q 19.46 -4.27 20.57 -7.27 Q 21.67 -10.28 22.17 -11.9 L 22.17 -11.9 Q 22.66 -13.52 22.98 -14.2 L 22.98 -14.2 Q 23.57 -15.5 24.49 -15.5 Q 25.4 -15.5 26.16 -13.98 L 26.16 -13.98 Q 26.71 -12.88 27.96 -9.1 Q 29.22 -5.32 30.29 -2.93 L 30.29 -2.93 Q 30.67 -2.07 31.13 -1.7 L 31.13 -1.7 Q 32 -1 32 -0.88 L 32 -0.88 Q 32 -0.46 31.5 -0.32 Q 31.01 -0.18 29.69 -0.18 L 29.69 -0.18 L 29.04 -0.16 L 28.72 -0.16 L 28.4 -0.17 Q 26.82 -0.17 26.82 -0.57 L 26.82 -0.57 Q 26.82 -0.58 27.06 -1.05 Q 27.3 -1.52 27.3 -2.07 Q 27.3 -2.62 27 -3.66 Q 26.69 -4.71 26.33 -5.01 Q 25.96 -5.31 23.95 -5.31 Q 21.94 -5.31 21.53 -4.94 L 21.53 -4.94 Q 21.3 -4.74 21.02 -3.93 Q 20.73 -3.12 20.73 -2.37 Q 20.73 -1.62 20.98 -1.21 L 20.98 -1.21 Q 21 -1.18 21.22 -0.9 Q 21.44 -0.63 21.44 -0.48 L 21.44 -0.48 Q 21.44 -0.19 19.89 -0.19 Q 18.35 -0.19 17.76 -0.34 Q 17.16 -0.49 17.16 -0.89 Z M 22.02 -6.67 L 22.02 -6.6 Q 22.02 -6.45 22.34 -6.45 L 22.34 -6.45 L 22.49 -6.42 L 24.38 -6.4 L 25.37 -6.4 Q 26.04 -6.4 26.04 -6.61 L 26.04 -6.61 Q 26.04 -7.2 24.36 -11.92 L 24.36 -11.92 Q 24.1 -12.65 24.07 -12.65 Q 24.04 -12.65 23.03 -9.82 Q 22.02 -7 22.02 -6.67 L 22.02 -6.67 Z M 33.59 -0.71 L 33.59 -0.71 Q 33.59 -0.81 34.17 -1.33 Q 34.76 -1.85 34.99 -2.85 Q 35.22 -3.84 35.22 -11.01 L 35.22 -11.01 Q 35.22 -13.07 34.59 -13.94 L 34.59 -13.94 L 34.23 -14.31 Q 33.89 -14.66 33.89 -14.91 L 33.89 -14.91 Q 33.89 -15.34 35.92 -15.34 L 35.92 -15.34 Q 37.08 -15.34 37.59 -15.09 Q 38.1 -14.84 38.57 -14.18 Q 39.03 -13.52 40.77 -9.15 Q 42.52 -4.78 42.66 -4.78 Q 42.81 -4.78 44.61 -9.15 Q 46.42 -13.51 46.94 -14.28 Q 47.46 -15.05 48.18 -15.26 L 48.18 -15.26 Q 48.55 -15.37 49.39 -15.37 L 49.39 -15.37 Q 51.3 -15.37 51.3 -14.94 L 51.3 -14.94 Q 51.3 -14.61 50.84 -14.08 Q 50.38 -13.56 50.21 -12.77 Q 50.04 -11.99 50.04 -9.56 L 50.04 -9.56 L 50.05 -8.85 Q 50.07 -8.14 50.07 -5.91 Q 50.07 -3.68 50.25 -2.86 Q 50.42 -2.03 50.73 -1.62 L 50.73 -1.62 L 51.06 -1.25 Q 51.62 -0.71 51.62 -0.69 L 51.62 -0.69 L 51.54 -0.44 Q 51.13 -0.07 49.44 -0.07 Q 47.75 -0.07 47.16 -0.31 L 47.16 -0.31 Q 46.82 -0.45 46.82 -0.76 L 46.82 -0.76 L 46.95 -1.07 L 47.15 -1.42 Q 47.35 -1.85 47.48 -2.7 Q 47.61 -3.55 47.61 -6.86 L 47.61 -6.86 L 47.63 -10.29 Q 47.63 -12.04 47.36 -12.04 L 47.36 -12.04 Q 47.15 -12.04 45.21 -7.13 Q 43.27 -2.22 43.1 -1.88 L 43.1 -1.88 Q 42.57 -0.81 41.97 -0.81 L 41.97 -0.81 Q 41.49 -0.81 39.33 -6.33 Q 37.18 -11.85 36.85 -11.85 L 36.85 -11.85 Q 36.66 -11.85 36.66 -7.3 Q 36.66 -2.75 37.08 -1.59 L 37.08 -1.59 L 37.26 -1.21 Q 37.46 -0.79 37.46 -0.62 L 37.46 -0.62 Q 37.46 -0.16 35.53 -0.16 Q 33.59 -0.16 33.59 -0.71 Z M 54.11 -0.71 L 54.11 -0.71 Q 54.11 -0.91 54.74 -1.34 Q 55.38 -1.76 55.54 -2.61 Q 55.7 -3.46 55.7 -8.01 Q 55.7 -12.56 55.53 -13.15 Q 55.35 -13.75 54.78 -14.2 Q 54.2 -14.64 54.2 -14.73 L 54.2 -14.73 Q 54.2 -15.15 54.82 -15.27 Q 55.43 -15.4 58.49 -15.4 L 58.49 -15.4 L 58.97 -15.41 Q 59.45 -15.42 59.95 -15.43 L 59.95 -15.43 L 61.43 -15.46 L 61.92 -15.46 Q 64.04 -15.46 64.56 -15.18 L 64.56 -15.18 Q 65.32 -14.78 65.32 -13.06 L 65.32 -13.06 Q 65.32 -12.41 65.1 -12.41 L 65.1 -12.41 Q 65 -12.41 64.4 -12.9 L 64.4 -12.9 Q 63.03 -14.03 60.48 -14.03 L 60.48 -14.03 Q 59.25 -14.03 58.87 -13.26 L 58.87 -13.26 Q 58.36 -12.25 58.36 -10.1 L 58.36 -10.1 Q 58.36 -9.47 58.79 -9.24 Q 59.21 -9.01 59.93 -9.01 Q 60.64 -9.01 61 -9.19 L 61 -9.19 Q 61.36 -9.39 61.78 -9.86 Q 62.19 -10.33 62.46 -10.33 L 62.46 -10.33 Q 63.14 -10.33 63.14 -8.45 L 63.14 -8.45 Q 63.14 -8.38 63.15 -8.31 L 63.15 -8.31 Q 63.15 -6.54 63 -6.13 L 63 -6.13 Q 62.86 -5.71 62.54 -5.72 L 62.54 -5.72 Q 62.51 -5.72 61.49 -6.59 L 61.49 -6.59 Q 60.88 -7.11 59.93 -7.11 Q 58.98 -7.11 58.61 -6.78 Q 58.24 -6.45 58.24 -5.71 L 58.24 -5.71 Q 58.24 -2.15 59.48 -1.64 L 59.48 -1.64 Q 59.95 -1.45 61.16 -1.45 L 61.16 -1.45 Q 63.34 -1.45 64.75 -2.63 L 64.75 -2.63 Q 65.62 -3.35 65.8 -3.35 Q 65.98 -3.35 65.98 -3.01 L 65.98 -3.01 Q 65.98 -1.26 65.1 -0.51 L 65.1 -0.51 Q 64.54 -0.02 61.64 -0.02 L 61.64 -0.02 L 59.66 -0.02 Q 56.56 -0.02 55.33 -0.15 Q 54.11 -0.28 54.11 -0.71 Z M 74.36 -7.34 L 74.36 -7.34 L 74.36 -7.76 Q 74.36 -9.34 74.91 -10.83 Q 75.47 -12.31 76.43 -13.34 Q 77.4 -14.36 78.7 -14.99 Q 79.99 -15.62 81.44 -15.62 L 81.44 -15.62 L 81.83 -15.62 Q 82.41 -15.62 83.77 -15.4 Q 85.13 -15.18 85.91 -15.18 Q 86.7 -15.18 87 -14.45 Q 87.29 -13.71 87.29 -12.19 L 87.29 -12.19 Q 87.29 -11.41 86.86 -11.41 L 86.86 -11.41 Q 86.68 -11.41 86 -12.2 L 86 -12.2 Q 84.27 -14.22 81.86 -14.22 L 81.86 -14.22 Q 80.81 -14.22 79.89 -13.7 L 79.89 -13.7 Q 77.2 -12.17 77.19 -7.73 L 77.19 -7.73 Q 77.19 -7.68 77.19 -7.65 L 77.19 -7.65 Q 77.19 -6.28 77.56 -5.1 L 77.56 -5.1 Q 78.32 -2.66 80.29 -1.76 L 80.29 -1.76 Q 81.13 -1.37 82.14 -1.37 Q 83.15 -1.37 84.08 -1.72 Q 85 -2.08 85.91 -2.75 Q 86.82 -3.43 87.23 -3.43 L 87.23 -3.43 Q 87.46 -3.43 87.46 -2.99 Q 87.46 -2.55 86.9 -1.78 Q 86.34 -1.01 85.72 -0.7 L 85.72 -0.7 Q 83.94 0.21 82 0.21 Q 80.07 0.21 78.79 -0.33 L 78.79 -0.33 Q 76.1 -1.46 74.95 -4.28 L 74.95 -4.28 Q 74.36 -5.75 74.36 -7.34 Z M 89.83 -7.4 L 89.83 -7.4 L 89.83 -7.94 Q 89.83 -9.43 90.38 -10.93 Q 90.92 -12.42 91.93 -13.53 L 91.93 -13.53 Q 94 -15.82 97.04 -15.82 L 97.04 -15.82 L 97.56 -15.82 Q 98.79 -15.82 100.09 -15.25 Q 101.39 -14.67 102.38 -13.56 Q 103.38 -12.45 103.87 -11.01 Q 104.36 -9.57 104.36 -8.15 L 104.36 -8.15 L 104.36 -7.88 Q 104.36 -4.35 102.22 -1.97 L 102.22 -1.97 Q 101.27 -0.91 99.93 -0.31 Q 98.6 0.28 97.13 0.28 L 97.13 0.28 L 96.87 0.28 Q 95.46 0.28 94.13 -0.28 Q 92.81 -0.84 91.84 -1.95 Q 90.88 -3.05 90.35 -4.48 Q 89.83 -5.9 89.83 -7.4 Z M 92.62 -8.21 L 92.62 -7.57 Q 92.62 -6.13 93.01 -4.87 L 93.01 -4.87 Q 93.76 -2.45 95.35 -1.48 L 95.35 -1.48 Q 96.16 -1 97.1 -1 L 97.1 -1 L 97.28 -1 Q 98.06 -1 98.87 -1.45 L 98.87 -1.45 Q 100.51 -2.37 101.2 -5.12 L 101.2 -5.12 Q 101.46 -6.19 101.46 -7.57 L 101.46 -7.57 L 101.46 -7.78 Q 101.46 -9.28 101.1 -10.53 L 101.1 -10.53 Q 100.4 -13.02 98.91 -13.98 L 98.91 -13.98 Q 98.01 -14.55 97.18 -14.55 L 97.18 -14.55 L 96.83 -14.55 Q 96 -14.55 95.2 -14.08 L 95.2 -14.08 Q 93.58 -13.12 92.97 -10.8 L 92.97 -10.8 Q 92.62 -9.52 92.62 -8.21 L 92.62 -8.21 Z M 106.85 -0.81 L 106.85 -0.81 Q 106.85 -0.98 107.49 -1.38 Q 108.13 -1.77 108.3 -2.23 Q 108.46 -2.68 108.46 -7.09 Q 108.46 -11.5 108.31 -12.49 Q 108.16 -13.49 107.81 -13.95 L 107.81 -13.95 Q 107.7 -14.11 107.34 -14.39 Q 106.98 -14.67 106.98 -14.81 L 106.98 -14.81 Q 106.98 -15.13 107.48 -15.28 Q 107.98 -15.43 110.54 -15.43 L 110.54 -15.43 L 111.35 -15.45 Q 112.17 -15.48 112.62 -15.48 L 112.62 -15.48 L 114.74 -15.48 Q 117.21 -15.48 117.7 -15.09 Q 118.19 -14.7 118.19 -12.79 L 118.19 -12.79 Q 118.19 -12.19 117.97 -12.19 Q 117.75 -12.19 117.13 -12.79 Q 116.52 -13.39 115.66 -13.72 Q 114.8 -14.06 113.39 -14.06 Q 111.98 -14.06 111.57 -13.32 L 111.57 -13.32 Q 111.02 -12.31 111.02 -10.29 L 111.02 -10.29 Q 111.02 -9.56 111.22 -9.31 L 111.22 -9.31 Q 111.56 -8.86 112.55 -8.86 Q 113.54 -8.86 114.2 -9.34 L 114.2 -9.34 Q 115.24 -10.1 115.33 -10.1 L 115.33 -10.1 L 115.52 -10 Q 115.86 -9.67 115.86 -7.67 Q 115.86 -5.67 115.13 -5.67 L 115.13 -5.67 Q 114.99 -5.67 114.75 -5.87 L 114.75 -5.87 L 114.56 -6.05 Q 114.18 -6.46 114.15 -6.48 L 114.15 -6.48 Q 113.61 -6.86 112.65 -6.86 Q 111.7 -6.86 111.41 -6.4 L 111.41 -6.4 Q 111.11 -5.93 111.11 -4.58 L 111.11 -4.58 Q 111.11 -2.11 111.82 -1.16 L 111.82 -1.16 Q 112.33 -0.47 112.33 -0.4 L 112.33 -0.4 Q 112.33 -0.11 111.08 -0.11 L 111.08 -0.11 L 110.69 -0.11 Q 108.55 -0.11 107.7 -0.28 Q 106.85 -0.44 106.85 -0.81 Z M 120.23 -0.82 L 120.23 -0.82 Q 120.23 -1.02 120.9 -1.45 Q 121.56 -1.89 121.72 -2.68 Q 121.87 -3.48 121.87 -7.98 Q 121.87 -12.49 121.67 -13.14 Q 121.46 -13.79 120.85 -14.21 Q 120.24 -14.63 120.24 -14.73 L 120.24 -14.73 Q 120.24 -15.12 121.13 -15.27 Q 122.02 -15.42 126.15 -15.42 L 126.15 -15.42 L 128.11 -15.42 Q 130.19 -15.42 130.75 -15.1 L 130.75 -15.1 Q 131.46 -14.69 131.46 -12.98 L 131.46 -12.98 Q 131.46 -12.31 131.25 -12.31 L 131.25 -12.31 Q 131.23 -12.31 130.59 -12.83 Q 129.95 -13.35 129.08 -13.69 Q 128.21 -14.03 126.81 -14.03 Q 125.41 -14.03 125.04 -13.26 L 125.04 -13.26 Q 124.52 -12.21 124.52 -10.06 L 124.52 -10.06 Q 124.52 -9.44 124.95 -9.24 Q 125.38 -9.03 126.21 -9.03 Q 127.04 -9.03 127.57 -9.53 L 127.57 -9.53 Q 128.53 -10.46 128.56 -10.46 L 128.56 -10.46 Q 128.87 -10.46 129.07 -10.05 Q 129.26 -9.65 129.26 -7.99 Q 129.26 -6.33 129.13 -6 Q 129 -5.66 128.73 -5.66 Q 128.45 -5.66 127.94 -6.21 Q 127.42 -6.76 127.34 -6.82 L 127.34 -6.82 Q 126.81 -7.17 125.99 -7.17 Q 125.17 -7.17 124.83 -6.83 Q 124.48 -6.5 124.48 -5.72 L 124.48 -5.72 Q 124.48 -2.96 125.15 -2.06 L 125.15 -2.06 Q 125.56 -1.5 127.12 -1.5 Q 128.69 -1.5 129.51 -1.87 Q 130.33 -2.23 131.03 -2.91 Q 131.73 -3.58 131.81 -3.58 L 131.81 -3.58 Q 132.15 -3.58 132.15 -3.02 Q 132.15 -2.45 131.87 -1.67 Q 131.59 -0.89 131.22 -0.58 L 131.22 -0.58 Q 130.63 -0.11 128.24 -0.11 L 128.24 -0.11 L 126.78 -0.11 Q 122.66 -0.11 121.45 -0.25 Q 120.23 -0.39 120.23 -0.82 Z M 123.23 -19.43 L 123.23 -19.43 L 123.23 -19.48 L 123.24 -19.54 Q 123.24 -19.71 123.54 -19.93 Q 123.84 -20.15 124.12 -20.15 L 124.12 -20.15 L 124.23 -20.15 Q 124.84 -20.15 125.8 -19.29 L 125.8 -19.29 Q 127.88 -17.45 127.88 -16.77 L 127.88 -16.77 Q 127.88 -16.5 127.53 -16.5 L 127.53 -16.5 L 127.36 -16.5 Q 126.81 -16.5 125.02 -17.69 Q 123.23 -18.89 123.23 -19.43 Z" stroke-linecap="round" />
</g>
</g>
</g>
</svg>